<svg xmlns="http://www.w3.org/2000/svg" viewBox="0 0 512 512">
  <defs>
    <linearGradient id="g" x1="0" y1="0" x2="1" y2="1">
      <stop offset="0" stop-color="#2563eb"/>
      <stop offset="1" stop-color="#0ea5e9"/>
    </linearGradient>
  </defs>
  <rect width="512" height="512" rx="112" fill="url(#g)"/>
  <g fill="#ffffff" transform="translate(96 112)">
    <!-- piggy bank body -->
    <path d="M280 120c0-46-47-84-112-84-48 0-90 21-108 52-8-6-19-10-32-10-16 0-28 10-28 22 0 8 6 16 16 20-10 16-16 34-16 52 0 36 20 68 52 88v40c0 10 8 18 18 18h32c10 0 18-8 18-18v-18c14 4 30 6 46 6s32-2 46-6v18c0 10 8 18 18 18h32c10 0 18-8 18-18v-42c26-18 44-44 48-74h22c10 0 18-8 18-18v-32c0-10-8-18-18-18h-24c-4-12-12-24-22-34Z"/>
    <!-- coin slot -->
    <rect x="138" y="62" width="50" height="10" rx="4" fill="#0b1220"/>
    <!-- eye -->
    <circle cx="228" cy="112" r="8" fill="#0b1220"/>
  </g>
</svg>
